PathFileType	4	(X/Y/Z)	D:\Share\Shared_Data\Ergonomics\Sit To Stand Pertubation\S1\Unperturbed_NoHarness.trc
DataRate	CameraRate	NumFrames	NumMarkers	Units	OrigDataRate	OrigDataStartFrame	OrigNumFrames	
100	100	17	18	m	100	3076	261
Frame#	Time	R_Thigh_Med			R_ASIS			R_Pelvis			V_Sacral			L_Pelvis			L_ASIS			Clavical			R_Acromium			L_Acromium			Sternum			Torso			R_Thigh_Lat			R_Thigh			R_Shank_Med			R_Shank_Lat			R_Shank			R_Heel			R_Toe			
		X1	Y1	Z1	X2	Y2	Z2	X3	Y3	Z3	X4	Y4	Z4	X5	Y5	Z5	X6	Y6	Z6	X7	Y7	Z7	X8	Y8	Z8	X9	Y9	Z9	X10	Y10	Z10	X11	Y11	Z11	X12	Y12	Z12	X13	Y13	Z13	X14	Y14	Z14	X15	Y15	Z15	X16	Y16	Z16	X17	Y17	Z17	X18	Y18	Z18	

3076	30.75	0.37141266	0.40208453	0.0044657931	0.14262904	0.61427277	0.095699493	0.063989536	0.65340594	0.1235983	-0.058409134	0.61653693	-0.009883193	0.06889621	0.65039117	-0.14405684	0.16125768	0.6321803	-0.10897066	0.38721512	0.83894885	-0.0094280853	0.38478152	0.94137903	0.12983691	0.31527655	0.94744434	-0.19701544	0.37514053	0.8634444	0.089083595	0.38205032	0.85345825	-0.062733128	0.37744443	0.42164291	0.12535705	0.26215421	0.54984534	0.082235214	0.32031509	0.09120256	0.065911583	0.29636551	0.098460838	0.1458065	0.34792844	0.3041821	0.14802496	0.24416866	0.031420227	0.093226479	0.44872543	0.052696434	0.1213536
3077	30.76	0.3740593	0.40137814	0.0039666543	0.14650839	0.61499963	0.095712425	0.067917572	0.65476349	0.12372931	-0.054522175	0.61837689	-0.0098496666	0.072868835	0.65164374	-0.14407248	0.16504491	0.63321082	-0.10902691	0.39094467	0.83956433	-0.0093558025	0.38906046	0.94202307	0.12992337	0.31983609	0.94796429	-0.19705356	0.37938174	0.8641283	0.089171326	0.38625659	0.85406531	-0.062644936	0.3803869	0.42098523	0.12495584	0.26575967	0.55016138	0.082139008	0.3205889	0.091016014	0.065737473	0.29668274	0.098439224	0.14567853	0.34986548	0.30375632	0.14769894	0.24422307	0.03147773	0.093219208	0.44877057	0.052566216	0.12131926
3078	30.77	0.37666766	0.40068109	0.0034523015	0.1503714	0.61586017	0.095706917	0.071865784	0.65627789	0.12386079	-0.050603069	0.62038525	-0.0097970161	0.076848602	0.65303705	-0.14408542	0.16884431	0.63437616	-0.10908361	0.39451678	0.84065729	-0.0092872982	0.39296747	0.94310028	0.1300712	0.32402225	0.94886676	-0.19708704	0.38342383	0.86524493	0.089279121	0.3902706	0.85511261	-0.062593742	0.38329745	0.42032986	0.12454305	0.2693287	0.55053821	0.081957741	0.32086121	0.090845131	0.065557312	0.29699576	0.098437866	0.14554184	0.35179269	0.30334152	0.14736339	0.24427306	0.031531975	0.09320433	0.44880896	0.052429241	0.12128536
3079	30.78	0.37923853	0.39999826	0.0029434731	0.15420927	0.61691077	0.09568618	0.075827713	0.65795837	0.12399757	-0.046662804	0.62256702	-0.0097253628	0.080824783	0.65457599	-0.14409811	0.17264522	0.63568243	-0.10914117	0.39801065	0.84220447	-0.0092256107	0.3965477	0.94458881	0.13028616	0.3278754	0.95013904	-0.19711662	0.38727893	0.86677283	0.089402664	0.39412399	0.85657794	-0.06257671	0.38616266	0.41968286	0.12413103	0.27291623	0.55093396	0.081677589	0.32112854	0.090689514	0.065371979	0.29730392	0.098452957	0.14539905	0.35369131	0.30293451	0.14702509	0.24431841	0.031582966	0.093182472	0.44884247	0.052290699	0.12125137
3080	30.79	0.38177838	0.39933786	0.0024608104	0.15801456	0.61819049	0.095651207	0.079799561	0.65980347	0.1241457	-0.042712082	0.62492163	-0.0096357498	0.08478495	0.65626593	-0.14411194	0.17643626	0.63713483	-0.10920155	0.40147775	0.84417712	-0.0091745224	0.39985858	0.94646259	0.13058258	0.33143427	0.9517652	-0.19714542	0.39096158	0.86868695	0.089537804	0.39783826	0.85843579	-0.062588707	0.38897232	0.41904965	0.12373082	0.27658121	0.55134521	0.081343895	0.32138831	0.090548157	0.065182617	0.29760522	0.098479622	0.14525285	0.35554755	0.30253134	0.14669395	0.24435947	0.031631634	0.093154999	0.44887451	0.052156147	0.1212182
3081	30.8	0.38428864	0.39870673	0.0020200944	0.16178203	0.61971716	0.09560817	0.083778084	0.66180353	0.12431153	-0.038760586	0.62744434	-0.0095316343	0.088717659	0.65811279	-0.14412671	0.18020764	0.6387392	-0.10926656	0.40493985	0.84654181	-0.0091365166	0.40296838	0.94869202	0.1309843	0.33473434	0.95372839	-0.19717802	0.39448901	0.87095966	0.089679947	0.40142484	0.86065936	-0.062623383	0.3917175	0.41843439	0.12335059	0.28034421	0.55178156	0.081002289	0.32163882	0.090419266	0.064990967	0.29789783	0.098512398	0.14510619	0.35735184	0.3021283	0.14638013	0.2443967	0.031679045	0.093123489	0.44890836	0.052029182	0.12118707
3082	30.81	0.38675534	0.39810428	0.0016279693	0.16551173	0.62150446	0.095576263	0.087759377	0.66394684	0.12450384	-0.034816498	0.63012604	-0.0094191885	0.092614601	0.66012231	-0.14414082	0.18395294	0.64050244	-0.10933527	0.40838934	0.84926154	-0.0091105175	0.40595197	0.95124591	0.13152136	0.33780753	0.95601227	-0.19721844	0.39787766	0.8735625	0.089824326	0.40488736	0.8632215	-0.062674133	0.39438971	0.41783807	0.12299492	0.2841897	0.55225555	0.080681129	0.32187894	0.090300201	0.064799538	0.2981814	0.098546333	0.14496161	0.35909705	0.30172238	0.14609062	0.24443086	0.031726084	0.093089729	0.4489462	0.051911118	0.1211586
3083	30.82	0.38915369	0.39752408	0.0012813998	0.16920894	0.62356696	0.095581802	0.091739304	0.66622321	0.1247347	-0.030886078	0.63295404	-0.0093074398	0.096471123	0.66229883	-0.14415248	0.18767001	0.64243365	-0.10940391	0.41179471	0.85229565	-0.0090900841	0.40887683	0.95409381	0.13222052	0.34068057	0.95860101	-0.19726843	0.40114148	0.87646863	0.089966568	0.40822464	0.86609729	-0.062734932	0.39698071	0.4172579	0.12266558	0.28808505	0.55277905	0.080396263	0.32210785	0.090187874	0.064611702	0.29845721	0.098578239	0.14482085	0.36077774	0.30131174	0.14582851	0.24446301	0.031773359	0.093055573	0.44898923	0.051801575	0.12113268
3084	30.83	0.39146057	0.39696082	0.00097108632	0.17288055	0.62590668	0.095640121	0.095714386	0.66862427	0.12501739	-0.026973925	0.63591284	-0.0092086115	0.10028578	0.66464337	-0.14416141	0.19136008	0.64454041	-0.10946795	0.41511267	0.85560199	-0.009063158	0.41178046	0.95720789	0.13308841	0.34337421	0.96147906	-0.19732709	0.40429233	0.87965277	0.090102684	0.41143274	0.86926398	-0.062800915	0.39948306	0.41668927	0.122362	0.291995	0.5533598	0.080155281	0.32232529	0.090079559	0.064430992	0.2987276	0.09860672	0.14468472	0.36239072	0.30089655	0.14559305	0.24449434	0.031821232	0.09302269	0.44903638	0.051698044	0.12110882
3085	30.84	0.39366174	0.39641296	0.00068602645	0.17653244	0.62850226	0.09574649	0.099681091	0.67114209	0.12536092	-0.023083948	0.63898529	-0.0091377983	0.10405935	0.66715308	-0.14416847	0.1950262	0.64682733	-0.10952444	0.41830154	0.85913855	-0.0090176849	0.41465448	0.96056604	0.13408876	0.34590326	0.96462994	-0.19739142	0.40734088	0.88309229	0.09022908	0.41450681	0.87270227	-0.062868938	0.40189157	0.41612933	0.12208117	0.29589029	0.55400018	0.079960251	0.32253146	0.089973625	0.06426001	0.29899487	0.098631111	0.14455388	0.36393423	0.30047903	0.14538037	0.24452573	0.031869989	0.092991997	0.44908255	0.051594807	0.1210867
3086	30.85	0.39575241	0.39588205	0.00041704237	0.18016901	0.63131189	0.0958815	0.10363487	0.67376831	0.12576469	-0.01921999	0.64215405	-0.0091103392	0.10779375	0.66982117	-0.14417451	0.19867149	0.64929333	-0.10957345	0.42133356	0.86286658	-0.0089523144	0.41744983	0.96415527	0.13512952	0.34827716	0.9680354	-0.19745775	0.41029691	0.88676721	0.090342552	0.41744247	0.87639581	-0.062937641	0.40420471	0.41557867	0.12181763	0.29975049	0.55469806	0.079808647	0.32272656	0.089869766	0.064099792	0.29925977	0.09865062	0.14442967	0.36540793	0.30006256	0.1451852	0.24455779	0.031920065	0.09296357	0.44911801	0.051483921	0.12106677
3087	30.86	0.39773438	0.39537073	0.00015794407	0.18379289	0.63428143	0.096020271	0.10757086	0.67649396	0.12621964	-0.015385572	0.64540509	-0.0091361609	0.11149111	0.6726369	-0.14418108	0.20229724	0.65193066	-0.10961798	0.4242016	0.86675067	-0.0088789797	0.42010303	0.96797119	0.13609219	0.35050125	0.97167474	-0.19752348	0.41316885	0.89066138	0.090441017	0.42023685	0.88033026	-0.063007275	0.40642496	0.41504053	0.12156434	0.30356345	0.55544812	0.079694389	0.32291074	0.089768753	0.06394981	0.29952124	0.098664032	0.14431349	0.3668136	0.29965128	0.14500275	0.24459053	0.031972229	0.092936775	0.44913251	0.051358749	0.12105014
3088	30.87	0.39961334	0.39488113	-9.5872976e-05	0.18740564	0.63735638	0.096140266	0.11148508	0.67931	0.12671174	-0.011583148	0.64873175	-0.0092125053	0.11515285	0.67558771	-0.14419069	0.20590141	0.65472363	-0.10966253	0.42692053	0.87075775	-0.0088126469	0.42256729	0.97201129	0.13688937	0.35257788	0.97552545	-0.19758754	0.41596219	0.89476184	0.090523857	0.42289059	0.8844931	-0.063079731	0.40855811	0.41451886	0.12131354	0.30732492	0.55624341	0.079610481	0.32308383	0.089671829	0.0638083	0.29977686	0.098670593	0.14420613	0.36815475	0.29924942	0.14482823	0.2446235	0.032027435	0.092910828	0.44911752	0.051216324	0.12103806
3089	30.88	0.40139813	0.39441385	-0.00034924012	0.19100922	0.64049744	0.096226105	0.11537341	0.68220831	0.12722261	-0.0078129454	0.65213824	-0.0093185787	0.11877921	0.6786593	-0.14420596	0.20947762	0.65764764	-0.10971152	0.42951913	0.87486133	-0.0087623348	0.42482431	0.97626862	0.13749135	0.3545072	0.97956415	-0.1976496	0.41867645	0.89905872	0.090591393	0.42541019	0.88887152	-0.063158295	0.41061215	0.41401715	0.12105747	0.31103745	0.55707629	0.079551308	0.32324591	0.089579926	0.063672676	0.30002399	0.098670975	0.14410706	0.36943558	0.29886093	0.14465517	0.24465593	0.032086342	0.092884987	0.44906607	0.051056625	0.1210316
3090	30.89	0.40309958	0.39396802	-0.0006068517	0.19460577	0.64368549	0.096270493	0.11923161	0.68517993	0.12773212	-0.0040715127	0.65563873	-0.0094171696	0.12236908	0.68183563	-0.14422884	0.21301607	0.66066956	-0.10976815	0.43202814	0.8790517	-0.008731122	0.42687842	0.98072986	0.13791095	0.35628848	0.98376788	-0.19771048	0.42130057	0.90354327	0.090643951	0.42780692	0.8934527	-0.063246666	0.41259631	0.41353815	0.12078858	0.31470905	0.55794061	0.079513313	0.32339728	0.089493294	0.063539951	0.3002605	0.098667519	0.14401411	0.37066013	0.29848874	0.14447639	0.24468701	0.032149395	0.09285894	0.44897025	0.050880459	0.12103143
3091	30.9	0.40472849	0.39354114	-0.00087171507	0.19819586	0.64691284	0.096272575	0.12305723	0.68821472	0.12822148	-0.00035125867	0.65925037	-0.009465394	0.12592073	0.68509937	-0.1442608	0.21650668	0.66375262	-0.10983508	0.4344679	0.88335016	-0.0087197905	0.42874823	0.98537695	0.13818063	0.35792172	0.98811591	-0.19777214	0.42381485	0.90820801	0.090681496	0.43009241	0.89822363	-0.063347435	0.41451938	0.41308417	0.12050025	0.31835068	0.55883289	0.079495071	0.32353882	0.089411636	0.063407375	0.3004855	0.09866375	0.1439243	0.37183276	0.29813394	0.14428661	0.24471651	0.032217285	0.092832687	0.44882104	0.050688137	0.12103812
3092	30.91	0.40629407	0.39312961	-0.0011449453	0.20177832	0.65017645	0.096235603	0.12685089	0.69129999	0.12867329	0.0033568285	0.66298029	-0.0094297428	0.12943272	0.6884317	-0.1443037	0.21994252	0.66686407	-0.10991679	0.43683945	0.88781561	-0.0087295952	0.43045819	0.99019086	0.13833702	0.35940768	0.99259149	-0.19783681	0.4262081	0.9130437	0.090705009	0.43227374	0.90317291	-0.063461071	0.41639078	0.41265686	0.12018913	0.32197406	0.55975122	0.07949781	0.32367236	0.089334412	0.063273125	0.30069882	0.098663185	0.14383466	0.37295831	0.29779645	0.14408398	0.2447448	0.032290741	0.09280661	0.44861261	0.050480728	0.12105244
